<?xml version="1.0" standalone="no"?>
<!DOCTYPE svg PUBLIC "-//W3C//DTD SVG 20010904//EN"
 "http://www.w3.org/TR/2001/REC-SVG-20010904/DTD/svg10.dtd">
<svg version="1.0" xmlns="http://www.w3.org/2000/svg"
 width="260.000000pt" height="260.000000pt" viewBox="0 0 260.000000 260.000000"
 preserveAspectRatio="xMidYMid meet">
<metadata>
Created by potrace 1.11, written by Peter Selinger 2001-2013
</metadata>
<g transform="translate(0.000000,260.000000) scale(0.100000,-0.100000)"
fill="#000000" stroke="none">
<path d="M731 2281 c-6 -11 -13 -44 -16 -73 -3 -29 -7 -69 -10 -88 -4 -33 -9
-69 -20 -163 -3 -23 -7 -58 -10 -77 -2 -19 -7 -55 -10 -80 -3 -25 -7 -61 -10
-80 -2 -19 -7 -56 -10 -82 -12 -106 -23 -205 -41 -343 -2 -22 -7 -56 -9 -75
-2 -19 -9 -71 -14 -115 -10 -82 -17 -139 -26 -223 -3 -26 -9 -65 -12 -87 -4
-22 -7 -51 -8 -65 -4 -57 -16 -153 -19 -159 -6 -10 -19 -151 -20 -211 l-1 -55
455 0 c250 0 473 3 495 7 122 22 189 44 280 91 146 76 233 184 286 357 30 98
33 278 6 356 -23 66 -72 136 -125 176 -23 18 -42 35 -42 38 0 4 22 21 50 39
133 86 210 253 210 456 1 275 -101 391 -405 461 -16 4 -240 9 -497 11 -460 4
-467 4 -477 -16z m765 -453 c77 -18 114 -77 99 -156 -14 -75 -65 -124 -141
-136 -36 -6 -162 -9 -263 -7 l-43 1 6 68 c4 37 9 78 11 92 2 14 7 50 11 80 3
30 8 59 11 63 7 11 260 7 309 -5z m-34 -762 c83 -40 87 -178 8 -250 -21 -19
-56 -39 -77 -45 -50 -12 -338 -9 -338 4 1 14 16 146 20 165 1 8 6 42 10 75 3
32 9 63 11 67 3 4 78 7 167 5 132 -2 169 -6 199 -21z"/>
</g>
</svg>
